<svg xmlns="http://www.w3.org/2000/svg" viewBox="0 0 24 24" width="24" height="24">
  <path fill="#000000" d="M19.6 8.3c-.14 1.06-.42 2.04-.94 2.88-.7 1.12-1.6 2-2.76 2.52-1.1.48-2.26.52-3.4.12-1.06-.36-1.96-.98-2.7-1.8-.78-.88-1.26-1.94-1.44-3.1-.16-1.04-.1-2.08.22-3.06.34-1.06.94-1.96 1.78-2.64.92-.74 2-1.18 3.18-1.22.36 0 .72.04 1.06.12.72.16 1.36.5 1.88.98.62.58 1.04 1.34 1.26 2.18.14.5.18 1.02.16 1.54zM12.3 2c-.44 1.54-.18 3.04.62 4.36.82 1.34 2.04 2.28 3.54 2.66.16-1.56-.22-3.08-.98-4.42-.78-1.34-1.94-2.3-3.18-2.6z"/>
</svg>
